{"title":"Hitman.2007.UNRATED.720p.BluRay.DTS.x264-AMX","uid":8358411,"size":3295134027,"categoryP":"video","categoryS":"hd___movies","magnet":"?xt=urn:btih:8162b65f76b4dbbc8012e93b5e1abffa060b16af&amp;dn=Hitman.2007.UNRATED.720p.BluRay.DTS.x264-AMX&amp;tr=udp%3A%2F%2Ftracker.openbittorrent.com%3A80&amp;tr=udp%3A%2F%2Fopen.demonii.com%3A1337&amp;tr=udp%3A%2F%2Ftracker.coppersurfer.tk%3A6969&amp;tr=udp%3A%2F%2Fexodus.desync.com%3A6969","seeders":1,"leechers":0,"uploader":"Lawry1494","files":-1,"time":1365547637,"description":"General\nComplete name                  : Hitman.2007.UNRATED.720p.BluRay.DTS.x264-AMX.mkv\nFormat                         : Matroska\nFormat version                 : Version 2\nFile size                      : 3.03 GiB\nDuration                       : 1h 34mn\nOverall bit rate               : 4 600 Kbps\nWriting application            : mkvmerge v6.1.0 ('Old Devil') built on Mar  2 2013 14:32:37\nWriting library                : libebml v1.3.0 + libmatroska v1.4.0\n\nVideo\nID                             : 1\nFormat                         : AVC\nFormat/Info                    : Advanced Video Codec\nFormat profile                 : &lt;a class=&quot;__cf_email__&quot; href=&quot;/cdn-cgi/l/email-protection&quot; data-cfemail=&quot;bbf3d2dcd3fbf78f958b&quot;&gt;[email&amp;#160;protected]&lt;/a&gt;&lt;script cf-hash='f9e31' type=&quot;text/javascript&quot;&gt;\n/* &lt;![CDATA[ */!function(){try{var t=&quot;currentScript&quot;in document?document.currentScript:function(){for(var t=document.getElementsByTagName(&quot;script&quot;),e=t.length;e--;)if(t[e].getAttribute(&quot;cf-hash&quot;))return t[e]}();if(t&amp;&amp;t.previousSibling){var e,r,n,i,c=t.previousSibling,a=c.getAttribute(&quot;data-cfemail&quot;);if(a){for(e=&quot;&quot;,r=parseInt(a.substr(0,2),16),n=2;a.length-n;n+=2)i=parseInt(a.substr(n,2),16)^r,e+=String.fromCharCode(i);e=document.createTextNode(e),c.parentNode.replaceChild(e,c)}}}catch(u){}}();/* ]]&gt; */&lt;/script&gt;\nFormat settings, CABAC         : Yes\nFormat settings, ReFrames      : 8 frames\nCodec ID                       : V_MPEG4/ISO/AVC\nDuration                       : 1h 34mn\nBit rate                       : 3 000 Kbps\nWidth                          : 1 280 pixels\nHeight                         : 544 pixels\nDisplay aspect ratio           : 2.35:1\nFrame rate mode                : Constant\nFrame rate                     : 23.976 fps\nColor space                    : YUV\nChroma subsampling             : 4:2:0\nBit depth                      : 8 bits\nScan type                      : Progressive\nBits/(Pixel*Frame)             : 0.180\nStream size                    : 1.97 GiB (65%)\nWriting library                : x264 core 130 r2273 b3065e6\nDefault                        : Yes\nForced                         : No\n\nAudio\nID                             : 2\nFormat                         : DTS\nFormat/Info                    : Digital Theater Systems\nMode                           : 16\nFormat settings, Endianness    : Big\nCodec ID                       : A_DTS\nDuration                       : 1h 34mn\nBit rate mode                  : Constant\nBit rate                       : 1 509 Kbps\nChannel(s)                     : 6 channels\nChannel positions              : Front: L C R, Side: L R, LFE\nSampling rate                  : 48.0 KHz\nBit depth                      : 24 bits\nCompression mode               : Lossy\nStream size                    : 1 017 MiB (33%)\nLanguage                       : English\nDefault                        : Yes\nForced                         : No\n\nSubs(SRT-Muxed):English(SDH), Romanian, Spanish\n\nChapters: Yes (not named)\n\nSource:Hitman 2007 Unrated BluRay ReMux 1080p AVC DTS-HD HR-3Li Thanks!!!","torrent":{"xt":"urn:btih:8162b65f76b4dbbc8012e93b5e1abffa060b16af","amp;dn":"Hitman.2007.UNRATED.720p.BluRay.DTS.x264-AMX","amp;tr":["udp%3A%2F%2Ftracker.openbittorrent.com%3A80","udp%3A%2F%2Fopen.demonii.com%3A1337","udp%3A%2F%2Ftracker.coppersurfer.tk%3A6969","udp%3A%2F%2Fexodus.desync.com%3A6969"],"infoHash":"8162b65f76b4dbbc8012e93b5e1abffa060b16af","infoHashBuffer":{"type":"Buffer","data":[129,98,182,95,118,180,219,188,128,18,233,59,94,26,191,250,6,11,22,175]},"announce":[],"urlList":[]}}